<svg width="1024" height="1024" viewBox="0 0 1024 1024" fill="none" xmlns="http://www.w3.org/2000/svg">
  <defs>
    <linearGradient id="bg" x1="172" y1="116" x2="854" y2="900" gradientUnits="userSpaceOnUse">
      <stop stop-color="#86BDB1"/>
      <stop offset="0.52" stop-color="#4D6C88"/>
      <stop offset="1" stop-color="#233346"/>
    </linearGradient>
    <radialGradient id="glow" cx="0" cy="0" r="1" gradientUnits="userSpaceOnUse" gradientTransform="translate(324 238) rotate(48.0128) scale(475.801)">
      <stop stop-color="white" stop-opacity="0.34"/>
      <stop offset="1" stop-color="white" stop-opacity="0"/>
    </radialGradient>
    <linearGradient id="accent" x1="545" y1="226" x2="737" y2="462" gradientUnits="userSpaceOnUse">
      <stop stop-color="#FFD19B"/>
      <stop offset="1" stop-color="#E9985E"/>
    </linearGradient>
    <filter id="softShadow" x="147" y="152" width="730" height="730" filterUnits="userSpaceOnUse" color-interpolation-filters="sRGB">
      <feFlood flood-opacity="0" result="BackgroundImageFix"/>
      <feColorMatrix in="SourceAlpha" type="matrix" values="0 0 0 0 0 0 0 0 0 0 0 0 0 0 0 0 0 0 127 0" result="hardAlpha"/>
      <feOffset dy="20"/>
      <feGaussianBlur stdDeviation="22"/>
      <feComposite in2="hardAlpha" operator="out"/>
      <feColorMatrix type="matrix" values="0 0 0 0 0.0666667 0 0 0 0 0.121569 0 0 0 0 0.180392 0 0 0 0.22 0"/>
      <feBlend mode="normal" in2="BackgroundImageFix" result="effect1_dropShadow_1_1"/>
      <feBlend mode="normal" in="SourceGraphic" in2="effect1_dropShadow_1_1" result="shape"/>
    </filter>
    <filter id="tileShadow" x="494" y="190" width="286" height="318" filterUnits="userSpaceOnUse" color-interpolation-filters="sRGB">
      <feFlood flood-opacity="0" result="BackgroundImageFix"/>
      <feColorMatrix in="SourceAlpha" type="matrix" values="0 0 0 0 0 0 0 0 0 0 0 0 0 0 0 0 0 0 127 0" result="hardAlpha"/>
      <feOffset dy="16"/>
      <feGaussianBlur stdDeviation="14"/>
      <feComposite in2="hardAlpha" operator="out"/>
      <feColorMatrix type="matrix" values="0 0 0 0 0.101961 0 0 0 0 0.152941 0 0 0 0 0.219608 0 0 0 0.24 0"/>
      <feBlend mode="normal" in2="BackgroundImageFix" result="effect1_dropShadow_1_1"/>
      <feBlend mode="normal" in="SourceGraphic" in2="effect1_dropShadow_1_1" result="shape"/>
    </filter>
  </defs>

  <rect x="72" y="72" width="880" height="880" rx="218" fill="url(#bg)"/>
  <rect x="72" y="72" width="880" height="880" rx="218" fill="url(#glow)"/>
  <rect x="84" y="84" width="856" height="856" rx="206" stroke="white" stroke-opacity="0.16" stroke-width="8"/>

  <g filter="url(#softShadow)">
    <rect x="190" y="192" width="644" height="644" rx="158" fill="white" fill-opacity="0.075"/>
    <rect x="190" y="192" width="644" height="644" rx="158" stroke="white" stroke-opacity="0.18" stroke-width="12"/>

    <rect x="252" y="252" width="220" height="220" rx="58" fill="#F8F3EA"/>
    <rect x="252" y="552" width="220" height="220" rx="58" fill="#F8F3EA"/>
    <rect x="552" y="552" width="220" height="220" rx="58" fill="#F8F3EA"/>

    <rect x="252" y="252" width="220" height="220" rx="58" fill="white" fill-opacity="0.12"/>
    <rect x="252" y="552" width="220" height="220" rx="58" fill="white" fill-opacity="0.08"/>
    <rect x="552" y="552" width="220" height="220" rx="58" fill="white" fill-opacity="0.08"/>
  </g>

  <g filter="url(#tileShadow)">
    <rect x="528" y="220" width="220" height="220" rx="58" fill="url(#accent)"/>
    <rect x="528" y="220" width="220" height="220" rx="58" fill="white" fill-opacity="0.12"/>
    <path d="M572 256C572 241.641 583.641 230 598 230H678C692.359 230 704 241.641 704 256V268H572V256Z" fill="white" fill-opacity="0.18"/>
  </g>
</svg>
